<svg width="1440" height="1122" viewBox="0 0 1440 1122" fill="none" xmlns="http://www.w3.org/2000/svg">
<g opacity="0.5" filter="url(#filter0_f_46_10768)">
<path d="M819.133 202.605C777.465 174.312 736.546 159.431 727.738 169.367C718.93 179.304 745.568 210.294 787.236 238.586C828.903 266.879 869.822 281.76 878.63 271.824C887.439 261.888 860.801 230.897 819.133 202.605Z" stroke="url(#paint0_linear_46_10768)" stroke-width="2" stroke-miterlimit="10"/>
<path d="M819.375 201.719C773.489 172.187 729.057 156.665 720.134 167.05C711.21 177.436 741.174 209.795 787.06 239.328C832.946 268.86 877.378 284.382 886.301 273.997C895.225 263.611 865.261 231.252 819.375 201.719Z" stroke="url(#paint1_linear_46_10768)" stroke-width="2" stroke-miterlimit="10"/>
<path d="M819.398 200.724C768.907 169.895 720.657 153.687 711.627 164.522C702.597 175.357 736.207 209.131 786.697 239.96C837.188 270.788 885.438 286.996 894.468 276.161C903.498 265.326 869.888 231.552 819.398 200.724Z" stroke="url(#paint2_linear_46_10768)" stroke-width="2" stroke-miterlimit="10"/>
<path d="M819.989 200.254C764.664 168.178 712.416 151.321 703.29 162.604C694.163 173.886 731.613 209.034 786.937 241.109C842.262 273.185 894.51 290.041 903.637 278.759C912.764 267.477 875.313 232.329 819.989 200.254Z" stroke="url(#paint3_linear_46_10768)" stroke-width="2" stroke-miterlimit="10"/>
<path d="M819.986 199.134C759.575 165.863 703.131 148.402 693.915 160.133C684.699 171.864 726.201 208.345 786.612 241.615C847.024 274.886 903.468 292.347 912.684 280.616C921.899 268.885 880.397 232.404 819.986 199.134Z" stroke="url(#paint4_linear_46_10768)" stroke-width="2" stroke-miterlimit="10"/>
<path d="M819.985 198.55C754.09 164.067 693.137 145.987 683.842 158.165C674.547 170.344 720.43 208.17 786.325 242.653C852.22 277.135 913.173 295.216 922.468 283.037C931.763 270.859 885.88 233.032 819.985 198.55Z" stroke="url(#paint5_linear_46_10768)" stroke-width="2" stroke-miterlimit="10"/>
<path d="M820.692 197.581C749.07 161.956 683.312 143.453 673.816 156.254C664.321 169.054 714.683 208.31 786.304 243.935C857.925 279.56 923.684 298.063 933.18 285.262C942.675 272.462 892.313 233.205 820.692 197.581Z" stroke="url(#paint6_linear_46_10768)" stroke-width="2" stroke-miterlimit="10"/>
<path d="M820.934 196.494C743.167 159.733 672.275 140.816 662.593 154.241C652.911 167.667 708.104 208.351 785.872 245.112C863.639 281.873 934.531 300.79 944.213 287.364C953.895 273.939 898.701 233.255 820.934 196.494Z" stroke="url(#paint7_linear_46_10768)" stroke-width="2" stroke-miterlimit="10"/>
<path d="M820.99 195.243C736.979 157.513 660.887 138.319 651.033 152.372C641.179 166.425 701.294 208.403 785.304 246.133C869.315 283.863 945.407 303.057 955.262 289.004C965.116 274.951 905 232.973 820.99 195.243Z" stroke="url(#paint8_linear_46_10768)" stroke-width="2" stroke-miterlimit="10"/>
<path d="M821.733 193.779C731.069 155.097 649.454 135.64 639.441 150.321C629.428 165.003 694.809 208.262 785.473 246.945C876.138 285.627 957.752 305.084 967.765 290.403C977.778 275.721 912.397 232.462 821.733 193.779Z" stroke="url(#paint9_linear_46_10768)" stroke-width="2" stroke-miterlimit="10"/>
<path d="M821.638 192.281C723.876 152.701 636.296 133.175 626.022 148.668C615.747 164.161 686.67 208.806 784.431 248.385C882.193 287.965 969.773 307.491 980.048 291.998C990.322 276.505 919.399 231.86 821.638 192.281Z" stroke="url(#paint10_linear_46_10768)" stroke-width="2" stroke-miterlimit="10"/>
<path d="M822.539 191.014C717.606 150.721 624.017 131.275 613.501 147.58C602.985 163.885 679.525 209.767 784.458 250.06C889.391 290.353 982.98 309.8 993.496 293.495C1004.01 277.189 927.471 231.307 822.539 191.014Z" stroke="url(#paint11_linear_46_10768)" stroke-width="2" stroke-miterlimit="10"/>
<path d="M822.833 189.877C710.285 148.946 610.344 129.644 599.609 146.765C588.874 163.887 671.409 210.948 783.958 251.88C896.506 292.811 996.447 312.113 1007.18 294.992C1017.92 277.87 935.381 230.809 822.833 189.877Z" stroke="url(#paint12_linear_46_10768)" stroke-width="2" stroke-miterlimit="10"/>
<path d="M822.908 188.181C702.464 146.75 595.96 127.709 585.025 145.651C574.09 163.594 662.866 211.725 783.31 253.156C903.755 294.587 1010.26 313.628 1021.19 295.685C1032.13 277.743 943.353 229.611 822.908 188.181Z" stroke="url(#paint13_linear_46_10768)" stroke-width="2" stroke-miterlimit="10"/>
<path d="M823.609 186.098C694.831 144.262 581.338 125.708 570.116 144.657C558.894 163.606 654.192 212.882 782.97 254.718C911.748 296.554 1025.24 315.108 1036.46 296.159C1047.68 277.21 952.387 227.934 823.609 186.098Z" stroke="url(#paint14_linear_46_10768)" stroke-width="2" stroke-miterlimit="10"/>
<path d="M824.347 184.086C687.138 142.082 566.516 124.359 554.93 144.503C543.343 164.646 645.18 215.027 782.389 257.031C919.597 299.036 1040.22 316.759 1051.81 296.615C1063.39 276.472 961.556 226.091 824.347 184.086Z" stroke="url(#paint15_linear_46_10768)" stroke-width="2" stroke-miterlimit="10"/>
<path d="M824.656 181.768C678.727 139.777 550.767 123.039 538.85 144.384C526.932 165.728 635.57 217.072 781.499 259.063C927.429 301.054 1055.39 317.791 1067.31 296.447C1079.22 275.102 970.585 223.759 824.656 181.768Z" stroke="url(#paint16_linear_46_10768)" stroke-width="2" stroke-miterlimit="10"/>
<path d="M825.168 179.617C670.249 137.837 534.763 122.247 522.55 144.796C510.337 167.345 626.023 219.494 780.941 261.274C935.86 303.055 1071.35 318.645 1083.56 296.096C1095.77 273.547 980.087 221.398 825.168 179.617Z" stroke="url(#paint17_linear_46_10768)" stroke-width="2" stroke-miterlimit="10"/>
<path d="M826.238 177.156C661.881 135.747 518.453 121.588 505.882 145.531C493.311 169.474 616.358 222.451 780.715 263.86C945.072 305.269 1088.5 319.427 1101.07 295.485C1113.64 271.542 990.595 218.564 826.238 177.156Z" stroke="url(#paint18_linear_46_10768)" stroke-width="2" stroke-miterlimit="10"/>
<path d="M826.624 174.561C652.888 133.852 501.603 121.396 488.717 146.74C475.832 172.083 606.227 225.63 779.962 266.339C953.698 307.048 1104.98 319.505 1117.87 294.161C1130.75 268.817 1000.36 215.271 826.624 174.561Z" stroke="url(#paint19_linear_46_10768)" stroke-width="2" stroke-miterlimit="10"/>
<path d="M827.272 171.586C643.698 131.786 484.068 121.51 470.73 148.634C457.391 175.759 595.394 230.011 778.969 269.812C962.544 309.612 1122.17 319.887 1135.51 292.763C1148.85 265.639 1010.85 211.386 827.272 171.586Z" stroke="url(#paint20_linear_46_10768)" stroke-width="2" stroke-miterlimit="10"/>
<path d="M827.992 168.506C634.478 129.905 466.542 121.895 452.896 150.617C439.249 179.339 585.06 233.915 778.574 272.516C972.087 311.117 1140.02 319.127 1153.67 290.405C1167.32 261.684 1021.51 207.107 827.992 168.506Z" stroke="url(#paint21_linear_46_10768)" stroke-width="2" stroke-miterlimit="10"/>
<path d="M828.484 165.272C624.927 128.209 448.506 123.051 434.436 153.752C420.367 184.453 573.976 239.387 777.533 276.451C981.09 313.514 1157.51 318.672 1171.58 287.971C1185.65 257.27 1032.04 202.336 828.484 165.272Z" stroke="url(#paint22_linear_46_10768)" stroke-width="2" stroke-miterlimit="10"/>
<path d="M829.655 160.868C615.776 125.611 430.627 123.681 416.115 156.556C401.603 189.432 563.221 244.664 777.101 279.92C990.98 315.177 1176.13 317.108 1190.64 284.232C1205.15 251.357 1043.53 196.125 829.655 160.868Z" stroke="url(#paint23_linear_46_10768)" stroke-width="2" stroke-miterlimit="10"/>
<path d="M830.378 157.189C606.272 124.146 412.544 125.774 397.672 160.826C382.8 195.878 552.417 251.08 776.522 284.123C1000.63 317.166 1194.36 315.537 1209.23 280.485C1224.1 245.433 1054.48 190.232 830.378 157.189Z" stroke="url(#paint24_linear_46_10768)" stroke-width="2" stroke-miterlimit="10"/>
<path d="M830.624 152.719C595.986 122.242 393.368 128.029 378.065 165.645C362.763 203.261 540.57 258.462 775.208 288.939C1009.85 319.417 1212.46 313.63 1227.77 276.014C1243.07 238.397 1065.26 183.197 830.624 152.719Z" stroke="url(#paint25_linear_46_10768)" stroke-width="2" stroke-miterlimit="10"/>
<path d="M831.593 147.581C586.544 120.058 375.156 130.474 359.445 170.845C343.735 211.217 529.65 266.255 774.699 293.778C1019.75 321.3 1231.14 310.884 1246.85 270.513C1262.56 230.142 1076.64 175.103 831.593 147.581Z" stroke="url(#paint26_linear_46_10768)" stroke-width="2" stroke-miterlimit="10"/>
<path d="M832.73 141.751C577.192 117.588 356.947 133.271 340.798 176.78C324.649 220.29 518.712 275.149 774.25 299.313C1029.79 323.476 1250.03 307.793 1266.18 264.284C1282.33 220.774 1088.27 165.915 832.73 141.751Z" stroke="url(#paint27_linear_46_10768)" stroke-width="2" stroke-miterlimit="10"/>
<path d="M833.092 136.232C567.361 115.909 338.608 137.25 322.157 183.897C305.707 230.545 507.789 284.835 773.52 305.158C1039.25 325.481 1268 304.141 1284.45 257.493C1300.91 210.845 1098.82 156.555 833.092 136.232Z" stroke="url(#paint28_linear_46_10768)" stroke-width="2" stroke-miterlimit="10"/>
<path d="M833.746 129.696C557.764 113.652 320.413 141.468 303.609 191.825C286.806 242.181 496.912 296.009 772.895 312.053C1048.88 328.097 1286.23 300.281 1303.03 249.925C1319.84 199.568 1109.73 145.74 833.746 129.696Z" stroke="url(#paint29_linear_46_10768)" stroke-width="2" stroke-miterlimit="10"/>
<path d="M834.007 122.16C547.887 110.869 302.072 145.854 284.965 200.3C267.857 254.747 485.935 308.038 772.055 319.329C1058.18 330.62 1303.99 295.635 1321.1 241.188C1338.21 186.742 1120.13 133.451 834.007 122.16Z" stroke="url(#paint30_linear_46_10768)" stroke-width="2" stroke-miterlimit="10"/>
<path d="M834.229 114.26C538.13 108.209 284.093 150.902 266.822 209.618C249.551 268.334 475.586 320.839 771.685 326.89C1067.78 332.942 1321.82 290.248 1339.09 231.532C1356.36 172.816 1130.33 120.312 834.229 114.26Z" stroke="url(#paint31_linear_46_10768)" stroke-width="2" stroke-miterlimit="10"/>
<path d="M834.57 105.188C529.067 104.892 267.281 156.319 249.856 220.054C232.431 283.789 465.964 335.697 771.468 335.993C1076.97 336.289 1338.76 284.862 1356.18 221.127C1373.61 157.392 1140.07 105.484 834.57 105.188Z" stroke="url(#paint32_linear_46_10768)" stroke-width="2" stroke-miterlimit="10"/>
<path d="M834.677 95.6456C519.958 101.608 250.751 162.313 233.387 231.233C216.023 300.152 457.076 351.189 771.795 345.226C1086.51 339.263 1355.72 278.559 1373.09 209.639C1390.45 140.719 1149.4 89.6827 834.677 95.6456Z" stroke="url(#paint33_linear_46_10768)" stroke-width="2" stroke-miterlimit="10"/>
<path d="M834.412 85.3981C510.895 98.1719 234.706 169.191 217.525 244.025C200.344 318.858 448.678 369.167 772.195 356.394C1095.71 343.62 1371.9 272.6 1389.08 197.767C1406.26 122.933 1157.93 72.6243 834.412 85.3981Z" stroke="url(#paint34_linear_46_10768)" stroke-width="2" stroke-miterlimit="10"/>
<path d="M833.97 72.9008C502.067 92.9763 219.37 175.298 202.55 256.771C185.73 338.244 441.154 388.017 773.058 367.942C1104.96 347.866 1387.66 265.545 1404.48 184.071C1421.3 102.598 1165.87 52.8254 833.97 72.9008Z" stroke="url(#paint35_linear_46_10768)" stroke-width="2" stroke-miterlimit="10"/>
<path d="M832.546 59.9193C492.91 87.8406 204.488 182.318 188.338 270.941C172.187 359.564 434.424 408.772 774.06 380.851C1113.7 352.929 1402.12 258.451 1418.27 169.829C1434.42 81.2061 1172.18 31.9979 832.546 59.9193Z" stroke="url(#paint36_linear_46_10768)" stroke-width="2" stroke-miterlimit="10"/>
<path d="M830.595 45.4488C483.724 81.7412 190.234 189.505 175.067 286.145C159.9 382.786 428.799 431.708 775.67 395.415C1122.54 359.123 1416.03 251.359 1431.2 154.719C1446.36 58.0782 1177.47 9.1563 830.595 45.4488Z" stroke="url(#paint37_linear_46_10768)" stroke-width="2" stroke-miterlimit="10"/>
<path d="M828.116 30.1435C474.768 75.3043 177.189 197.276 163.453 302.574C149.716 407.872 425.026 456.624 778.373 411.463C1131.72 366.302 1429.3 244.331 1443.04 139.032C1456.77 33.7338 1181.46 -15.0174 828.116 30.1435Z" stroke="url(#paint38_linear_46_10768)" stroke-width="2" stroke-miterlimit="10"/>
<path d="M824.962 12.1226C465.901 66.5907 165.231 204.088 153.396 319.231C141.561 434.374 423.044 483.562 782.105 429.093C1141.17 374.625 1441.84 237.128 1453.67 121.985C1465.51 6.84138 1184.02 -42.3455 824.962 12.1226Z" stroke="url(#paint39_linear_46_10768)" stroke-width="2" stroke-miterlimit="10"/>
<path d="M820.064 -6.8913C456.085 57.3476 153.514 211.36 144.251 337.104C134.988 462.849 422.542 512.709 786.52 448.471C1150.5 384.232 1453.07 230.22 1462.33 104.475C1471.6 -21.2699 1184.04 -71.1302 820.064 -6.8913Z" stroke="url(#paint40_linear_46_10768)" stroke-width="2" stroke-miterlimit="10"/>
<path d="M814.209 -28.5498C446.18 45.8234 143.019 217.667 137.078 355.275C131.138 492.882 424.668 544.144 792.696 469.77C1160.72 395.397 1463.89 223.553 1469.83 85.9458C1475.77 -51.6615 1182.24 -102.923 814.209 -28.5498Z" stroke="url(#paint41_linear_46_10768)" stroke-width="2" stroke-miterlimit="10"/>
<path d="M806.308 -52.1767C435.118 32.6837 132.855 223.61 131.186 374.269C129.516 524.929 429.072 578.269 800.262 493.409C1171.45 408.548 1473.71 217.622 1475.38 66.9626C1477.05 -83.6966 1177.5 -137.037 806.308 -52.1767Z" stroke="url(#paint42_linear_46_10768)" stroke-width="2" stroke-miterlimit="10"/>
<path d="M796.594 -77.8092C423.004 17.866 123.184 229.17 126.925 394.151C130.667 559.132 436.554 615.316 810.144 519.641C1183.73 423.965 1483.56 212.661 1479.81 47.6803C1476.07 -117.301 1170.18 -173.484 796.594 -77.8092Z" stroke="url(#paint43_linear_46_10768)" stroke-width="2" stroke-miterlimit="10"/>
<path d="M784.288 -106.552C409.251 0.118605 113.728 233.06 124.218 413.737C134.708 594.415 447.238 654.409 822.275 547.739C1197.31 441.068 1492.83 208.127 1482.35 27.4494C1471.86 -153.228 1159.32 -213.222 784.288 -106.552Z" stroke="url(#paint44_linear_46_10768)" stroke-width="2" stroke-miterlimit="10"/>
<path d="M769.153 -137.414C393.709 -19.6226 104.629 236.191 123.474 433.963C142.32 631.734 461.955 696.571 837.399 578.78C1212.84 460.989 1501.92 205.175 1483.08 7.40372C1464.23 -190.368 1144.6 -255.205 769.153 -137.414Z" stroke="url(#paint45_linear_46_10768)" stroke-width="2" stroke-miterlimit="10"/>
<path d="M750.732 -171.639C375.524 -42.5906 94.9526 237.661 124.058 454.322C153.164 670.983 480.925 742.007 856.132 612.959C1231.34 483.911 1511.91 203.659 1482.81 -13.0021C1453.7 -229.663 1125.94 -300.687 750.732 -171.639Z" stroke="url(#paint46_linear_46_10768)" stroke-width="2" stroke-miterlimit="10"/>
<path d="M727.818 -208.351C353.685 -68.033 84.0726 237.843 125.622 474.842C167.17 711.841 504.147 790.217 878.28 649.898C1252.41 509.58 1522.03 203.704 1480.48 -33.2953C1438.93 -270.294 1101.95 -348.67 727.818 -208.351Z" stroke="url(#paint47_linear_46_10768)" stroke-width="2" stroke-miterlimit="10"/>
<path d="M701.094 -248.217C328.958 -96.7661 73.1035 236.03 129.627 495.105C186.15 754.179 533.646 841.426 905.782 689.976C1277.92 538.525 1533.77 205.728 1477.25 -53.3462C1420.73 -312.421 1073.23 -399.667 701.094 -248.217Z" stroke="url(#paint48_linear_46_10768)" stroke-width="2" stroke-miterlimit="10"/>
<path d="M668.36 -291.587C298.635 -129.042 59.2054 232.065 133.579 514.97C207.953 797.875 567.967 895.446 937.692 732.901C1307.42 570.356 1546.85 209.248 1472.47 -73.6568C1398.1 -356.561 1038.08 -454.132 668.36 -291.587Z" stroke="url(#paint49_linear_46_10768)" stroke-width="2" stroke-miterlimit="10"/>
<path d="M1460.62 -112.705C1352.39 -414.966 970.345 -510.779 607.299 -326.707C244.252 -142.636 37.6842 251.615 145.917 553.876C254.149 856.138 636.196 951.951 999.243 767.879C1362.29 583.808 1568.86 189.557 1460.62 -112.705Z" stroke="url(#paint50_linear_46_10768)" stroke-width="2" stroke-miterlimit="10"/>
</g>
<defs>
<filter id="filter0_f_46_10768" x="-83.814" y="-621.336" width="1774.17" height="1683.84" filterUnits="userSpaceOnUse" color-interpolation-filters="sRGB">
<feFlood flood-opacity="0" result="BackgroundImageFix"/>
<feBlend mode="normal" in="SourceGraphic" in2="BackgroundImageFix" result="shape"/>
<feGaussianBlur stdDeviation="100" result="effect1_foregroundBlur_46_10768"/>
</filter>
<linearGradient id="paint0_linear_46_10768" x1="787.236" y1="238.586" x2="814.023" y2="199.135" gradientUnits="userSpaceOnUse">
<stop stop-color="#03BFC0"/>
<stop offset="1" stop-color="#7000FF"/>
</linearGradient>
<linearGradient id="paint1_linear_46_10768" x1="787.06" y1="239.328" x2="813.64" y2="198.028" gradientUnits="userSpaceOnUse">
<stop stop-color="#03BFC0"/>
<stop offset="1" stop-color="#7000FF"/>
</linearGradient>
<linearGradient id="paint2_linear_46_10768" x1="786.697" y1="239.96" x2="813.028" y2="196.835" gradientUnits="userSpaceOnUse">
<stop stop-color="#03BFC0"/>
<stop offset="1" stop-color="#7000FF"/>
</linearGradient>
<linearGradient id="paint3_linear_46_10768" x1="786.938" y1="241.11" x2="812.981" y2="196.19" gradientUnits="userSpaceOnUse">
<stop stop-color="#03BFC0"/>
<stop offset="1" stop-color="#7000FF"/>
</linearGradient>
<linearGradient id="paint4_linear_46_10768" x1="786.612" y1="241.615" x2="812.33" y2="194.917" gradientUnits="userSpaceOnUse">
<stop stop-color="#03BFC0"/>
<stop offset="1" stop-color="#7000FF"/>
</linearGradient>
<linearGradient id="paint5_linear_46_10768" x1="786.325" y1="242.653" x2="811.679" y2="194.203" gradientUnits="userSpaceOnUse">
<stop stop-color="#03BFC0"/>
<stop offset="1" stop-color="#7000FF"/>
</linearGradient>
<linearGradient id="paint6_linear_46_10768" x1="786.304" y1="243.935" x2="811.609" y2="193.063" gradientUnits="userSpaceOnUse">
<stop stop-color="#03BFC0"/>
<stop offset="1" stop-color="#7000FF"/>
</linearGradient>
<linearGradient id="paint7_linear_46_10768" x1="785.872" y1="245.112" x2="811.06" y2="191.827" gradientUnits="userSpaceOnUse">
<stop stop-color="#03BFC0"/>
<stop offset="1" stop-color="#7000FF"/>
</linearGradient>
<linearGradient id="paint8_linear_46_10768" x1="785.305" y1="246.133" x2="810.313" y2="190.448" gradientUnits="userSpaceOnUse">
<stop stop-color="#03BFC0"/>
<stop offset="1" stop-color="#7000FF"/>
</linearGradient>
<linearGradient id="paint9_linear_46_10768" x1="785.473" y1="246.945" x2="810.248" y2="188.879" gradientUnits="userSpaceOnUse">
<stop stop-color="#03BFC0"/>
<stop offset="1" stop-color="#7000FF"/>
</linearGradient>
<linearGradient id="paint10_linear_46_10768" x1="784.431" y1="248.385" x2="809.187" y2="187.24" gradientUnits="userSpaceOnUse">
<stop stop-color="#03BFC0"/>
<stop offset="1" stop-color="#7000FF"/>
</linearGradient>
<linearGradient id="paint11_linear_46_10768" x1="784.458" y1="250.06" x2="809.111" y2="185.858" gradientUnits="userSpaceOnUse">
<stop stop-color="#03BFC0"/>
<stop offset="1" stop-color="#7000FF"/>
</linearGradient>
<linearGradient id="paint12_linear_46_10768" x1="783.958" y1="251.88" x2="808.414" y2="184.633" gradientUnits="userSpaceOnUse">
<stop stop-color="#03BFC0"/>
<stop offset="1" stop-color="#7000FF"/>
</linearGradient>
<linearGradient id="paint13_linear_46_10768" x1="783.31" y1="253.156" x2="807.485" y2="182.875" gradientUnits="userSpaceOnUse">
<stop stop-color="#03BFC0"/>
<stop offset="1" stop-color="#7000FF"/>
</linearGradient>
<linearGradient id="paint14_linear_46_10768" x1="782.97" y1="254.718" x2="807.014" y2="180.707" gradientUnits="userSpaceOnUse">
<stop stop-color="#03BFC0"/>
<stop offset="1" stop-color="#7000FF"/>
</linearGradient>
<linearGradient id="paint15_linear_46_10768" x1="782.389" y1="257.031" x2="806.402" y2="178.593" gradientUnits="userSpaceOnUse">
<stop stop-color="#03BFC0"/>
<stop offset="1" stop-color="#7000FF"/>
</linearGradient>
<linearGradient id="paint16_linear_46_10768" x1="781.499" y1="259.063" x2="805.34" y2="176.21" gradientUnits="userSpaceOnUse">
<stop stop-color="#03BFC0"/>
<stop offset="1" stop-color="#7000FF"/>
</linearGradient>
<linearGradient id="paint17_linear_46_10768" x1="780.942" y1="261.275" x2="804.469" y2="174.035" gradientUnits="userSpaceOnUse">
<stop stop-color="#03BFC0"/>
<stop offset="1" stop-color="#7000FF"/>
</linearGradient>
<linearGradient id="paint18_linear_46_10768" x1="780.715" y1="263.86" x2="803.973" y2="171.546" gradientUnits="userSpaceOnUse">
<stop stop-color="#03BFC0"/>
<stop offset="1" stop-color="#7000FF"/>
</linearGradient>
<linearGradient id="paint19_linear_46_10768" x1="779.962" y1="266.339" x2="802.777" y2="168.974" gradientUnits="userSpaceOnUse">
<stop stop-color="#03BFC0"/>
<stop offset="1" stop-color="#7000FF"/>
</linearGradient>
<linearGradient id="paint20_linear_46_10768" x1="778.969" y1="269.812" x2="801.478" y2="165.994" gradientUnits="userSpaceOnUse">
<stop stop-color="#03BFC0"/>
<stop offset="1" stop-color="#7000FF"/>
</linearGradient>
<linearGradient id="paint21_linear_46_10768" x1="778.574" y1="272.516" x2="800.419" y2="163.006" gradientUnits="userSpaceOnUse">
<stop stop-color="#03BFC0"/>
<stop offset="1" stop-color="#7000FF"/>
</linearGradient>
<linearGradient id="paint22_linear_46_10768" x1="777.533" y1="276.451" x2="798.762" y2="159.861" gradientUnits="userSpaceOnUse">
<stop stop-color="#03BFC0"/>
<stop offset="1" stop-color="#7000FF"/>
</linearGradient>
<linearGradient id="paint23_linear_46_10768" x1="777.101" y1="279.92" x2="797.597" y2="155.584" gradientUnits="userSpaceOnUse">
<stop stop-color="#03BFC0"/>
<stop offset="1" stop-color="#7000FF"/>
</linearGradient>
<linearGradient id="paint24_linear_46_10768" x1="776.522" y1="284.123" x2="795.985" y2="152.118" gradientUnits="userSpaceOnUse">
<stop stop-color="#03BFC0"/>
<stop offset="1" stop-color="#7000FF"/>
</linearGradient>
<linearGradient id="paint25_linear_46_10768" x1="775.208" y1="288.939" x2="793.528" y2="147.901" gradientUnits="userSpaceOnUse">
<stop stop-color="#03BFC0"/>
<stop offset="1" stop-color="#7000FF"/>
</linearGradient>
<linearGradient id="paint26_linear_46_10768" x1="774.699" y1="293.778" x2="791.623" y2="143.091" gradientUnits="userSpaceOnUse">
<stop stop-color="#03BFC0"/>
<stop offset="1" stop-color="#7000FF"/>
</linearGradient>
<linearGradient id="paint27_linear_46_10768" x1="774.25" y1="299.313" x2="789.535" y2="137.667" gradientUnits="userSpaceOnUse">
<stop stop-color="#03BFC0"/>
<stop offset="1" stop-color="#7000FF"/>
</linearGradient>
<linearGradient id="paint28_linear_46_10768" x1="773.52" y1="305.158" x2="786.71" y2="132.685" gradientUnits="userSpaceOnUse">
<stop stop-color="#03BFC0"/>
<stop offset="1" stop-color="#7000FF"/>
</linearGradient>
<linearGradient id="paint29_linear_46_10768" x1="772.895" y1="312.053" x2="783.665" y2="126.785" gradientUnits="userSpaceOnUse">
<stop stop-color="#03BFC0"/>
<stop offset="1" stop-color="#7000FF"/>
</linearGradient>
<linearGradient id="paint30_linear_46_10768" x1="772.055" y1="319.329" x2="779.92" y2="120.026" gradientUnits="userSpaceOnUse">
<stop stop-color="#03BFC0"/>
<stop offset="1" stop-color="#7000FF"/>
</linearGradient>
<linearGradient id="paint31_linear_46_10768" x1="771.685" y1="326.89" x2="776.055" y2="113.071" gradientUnits="userSpaceOnUse">
<stop stop-color="#03BFC0"/>
<stop offset="1" stop-color="#7000FF"/>
</linearGradient>
<linearGradient id="paint32_linear_46_10768" x1="771.468" y1="335.993" x2="771.692" y2="105.127" gradientUnits="userSpaceOnUse">
<stop stop-color="#03BFC0"/>
<stop offset="1" stop-color="#7000FF"/>
</linearGradient>
<linearGradient id="paint33_linear_46_10768" x1="771.795" y1="345.226" x2="767.091" y2="96.9261" gradientUnits="userSpaceOnUse">
<stop stop-color="#03BFC0"/>
<stop offset="1" stop-color="#7000FF"/>
</linearGradient>
<linearGradient id="paint34_linear_46_10768" x1="772.195" y1="356.394" x2="761.609" y2="88.2727" gradientUnits="userSpaceOnUse">
<stop stop-color="#03BFC0"/>
<stop offset="1" stop-color="#7000FF"/>
</linearGradient>
<linearGradient id="paint35_linear_46_10768" x1="773.058" y1="367.942" x2="755.499" y2="77.6472" gradientUnits="userSpaceOnUse">
<stop stop-color="#03BFC0"/>
<stop offset="1" stop-color="#7000FF"/>
</linearGradient>
<linearGradient id="paint36_linear_46_10768" x1="774.06" y1="380.851" x2="748.246" y2="66.8496" gradientUnits="userSpaceOnUse">
<stop stop-color="#03BFC0"/>
<stop offset="1" stop-color="#7000FF"/>
</linearGradient>
<linearGradient id="paint37_linear_46_10768" x1="775.67" y1="395.415" x2="740.045" y2="54.9228" gradientUnits="userSpaceOnUse">
<stop stop-color="#03BFC0"/>
<stop offset="1" stop-color="#7000FF"/>
</linearGradient>
<linearGradient id="paint38_linear_46_10768" x1="778.374" y1="411.463" x2="731.221" y2="42.5275" gradientUnits="userSpaceOnUse">
<stop stop-color="#03BFC0"/>
<stop offset="1" stop-color="#7000FF"/>
</linearGradient>
<linearGradient id="paint39_linear_46_10768" x1="782.105" y1="429.093" x2="721.239" y2="27.857" gradientUnits="userSpaceOnUse">
<stop stop-color="#03BFC0"/>
<stop offset="1" stop-color="#7000FF"/>
</linearGradient>
<linearGradient id="paint40_linear_46_10768" x1="786.52" y1="448.471" x2="709.594" y2="12.6056" gradientUnits="userSpaceOnUse">
<stop stop-color="#03BFC0"/>
<stop offset="1" stop-color="#7000FF"/>
</linearGradient>
<linearGradient id="paint41_linear_46_10768" x1="792.696" y1="469.77" x2="696.788" y2="-4.82083" gradientUnits="userSpaceOnUse">
<stop stop-color="#03BFC0"/>
<stop offset="1" stop-color="#7000FF"/>
</linearGradient>
<linearGradient id="paint42_linear_46_10768" x1="800.262" y1="493.409" x2="682.027" y2="-23.7641" gradientUnits="userSpaceOnUse">
<stop stop-color="#03BFC0"/>
<stop offset="1" stop-color="#7000FF"/>
</linearGradient>
<linearGradient id="paint43_linear_46_10768" x1="810.144" y1="519.641" x2="665.723" y2="-44.2933" gradientUnits="userSpaceOnUse">
<stop stop-color="#03BFC0"/>
<stop offset="1" stop-color="#7000FF"/>
</linearGradient>
<linearGradient id="paint44_linear_46_10768" x1="822.275" y1="547.739" x2="647.262" y2="-67.5781" gradientUnits="userSpaceOnUse">
<stop stop-color="#03BFC0"/>
<stop offset="1" stop-color="#7000FF"/>
</linearGradient>
<linearGradient id="paint45_linear_46_10768" x1="837.399" y1="578.78" x2="626.722" y2="-92.7277" gradientUnits="userSpaceOnUse">
<stop stop-color="#03BFC0"/>
<stop offset="1" stop-color="#7000FF"/>
</linearGradient>
<linearGradient id="paint46_linear_46_10768" x1="856.133" y1="612.959" x2="603.676" y2="-121.061" gradientUnits="userSpaceOnUse">
<stop stop-color="#03BFC0"/>
<stop offset="1" stop-color="#7000FF"/>
</linearGradient>
<linearGradient id="paint47_linear_46_10768" x1="878.28" y1="649.898" x2="577.534" y2="-151.987" gradientUnits="userSpaceOnUse">
<stop stop-color="#03BFC0"/>
<stop offset="1" stop-color="#7000FF"/>
</linearGradient>
<linearGradient id="paint48_linear_46_10768" x1="905.782" y1="689.975" x2="549.13" y2="-186.371" gradientUnits="userSpaceOnUse">
<stop stop-color="#03BFC0"/>
<stop offset="1" stop-color="#7000FF"/>
</linearGradient>
<linearGradient id="paint49_linear_46_10768" x1="937.692" y1="732.901" x2="516.618" y2="-224.876" gradientUnits="userSpaceOnUse">
<stop stop-color="#03BFC0"/>
<stop offset="1" stop-color="#7000FF"/>
</linearGradient>
<linearGradient id="paint50_linear_46_10768" x1="145.917" y1="553.877" x2="1522.77" y2="60.8588" gradientUnits="userSpaceOnUse">
<stop stop-color="#03BFC0"/>
<stop offset="1" stop-color="#7000FF"/>
</linearGradient>
</defs>
</svg>
