<svg width="160" height="24" viewBox="0 0 160 24" fill="none" xmlns="http://www.w3.org/2000/svg">
<path d="M135.263 23.5789V0H155.474V3.36842H158.842V10.1053H155.474V13.4737H158.842V20.2105H155.474V23.5789H135.263ZM142 10.1053H152.105V3.36842H142V10.1053ZM142 20.2105H152.105V13.4737H142V20.2105Z" fill="#9730FF"/>
<path d="M111.579 23.5789V20.2105H108.21V3.36842H111.579V0H128.421V3.36842H131.789V20.2105H128.421V23.5789H111.579ZM114.947 20.2105H125.053V3.36842H114.947V20.2105Z" fill="#9730FF"/>
<path d="M84.5261 23.5789V20.2105H81.1577V16.8421H87.8946V20.2105H97.9998V0H104.737V20.2105H101.368V23.5789H84.5261Z" fill="#9730FF"/>
<path d="M57.4736 23.5789V0H64.2105V20.2105H77.6842V23.5789H57.4736Z" fill="#9730FF"/>
<path d="M30.4212 23.5789V20.2105H27.0527V3.36842H30.4212V0H47.2633V3.36842H50.6317V20.2105H47.2633V23.5789H30.4212ZM33.7896 20.2105H43.8948V3.36842H33.7896V20.2105Z" fill="#9730FF"/>
<path d="M3.36842 23.5789V20.2105H0V16.8421H6.73684V20.2105H16.8421V13.4737H3.36842V10.1053H0V3.36842H3.36842V0H20.2105V3.36842H23.5789V6.73684H16.8421V3.36842H6.73684V10.1053H20.2105V13.4737H23.5789V20.2105H20.2105V23.5789H3.36842Z" fill="#9730FF"/>
</svg>
